<mxfile host="app.diagrams.net" agent="Mozilla/5.0 (Windows NT 10.0; Win64; x64) AppleWebKit/537.36 (KHTML, like Gecko) Chrome/134.0.0.0 Safari/537.36 OPR/119.0.0.0" version="27.1.6">
  <diagram name="PÃ¡gina-1" id="eu4OGQ8WXVm1tj5qWyjy">
    <mxGraphModel dx="7380" dy="3400" grid="1" gridSize="10" guides="1" tooltips="1" connect="1" arrows="1" fold="1" page="1" pageScale="1" pageWidth="827" pageHeight="1169" math="0" shadow="0">
      <root>
        <mxCell id="0" />
        <mxCell id="1" parent="0" />
        <mxCell id="6MP2kYyHOKTxRJTGYusG-2" value="" style="endArrow=none;html=1;rounded=0;" edge="1" parent="1">
          <mxGeometry width="50" height="50" relative="1" as="geometry">
            <mxPoint x="160" y="3554.1559709821427" as="sourcePoint" />
            <mxPoint x="160" y="110" as="targetPoint" />
          </mxGeometry>
        </mxCell>
        <mxCell id="6MP2kYyHOKTxRJTGYusG-4" value="" style="endArrow=none;html=1;rounded=0;" edge="1" parent="1">
          <mxGeometry width="50" height="50" relative="1" as="geometry">
            <mxPoint x="360" y="3544.1559709821427" as="sourcePoint" />
            <mxPoint x="360" y="100" as="targetPoint" />
          </mxGeometry>
        </mxCell>
        <mxCell id="6MP2kYyHOKTxRJTGYusG-5" value="" style="endArrow=none;html=1;rounded=0;" edge="1" parent="1" source="6MP2kYyHOKTxRJTGYusG-66">
          <mxGeometry width="50" height="50" relative="1" as="geometry">
            <mxPoint x="520" y="3554.1559709821427" as="sourcePoint" />
            <mxPoint x="520" y="110" as="targetPoint" />
          </mxGeometry>
        </mxCell>
        <mxCell id="6MP2kYyHOKTxRJTGYusG-6" value="" style="endArrow=none;html=1;rounded=0;" edge="1" parent="1">
          <mxGeometry width="50" height="50" relative="1" as="geometry">
            <mxPoint x="720" y="430" as="sourcePoint" />
            <mxPoint x="720" y="100" as="targetPoint" />
          </mxGeometry>
        </mxCell>
        <mxCell id="6MP2kYyHOKTxRJTGYusG-7" value="" style="endArrow=none;html=1;rounded=0;" edge="1" parent="1">
          <mxGeometry width="50" height="50" relative="1" as="geometry">
            <mxPoint x="890" y="3544.1559709821427" as="sourcePoint" />
            <mxPoint x="890" y="100" as="targetPoint" />
          </mxGeometry>
        </mxCell>
        <mxCell id="6MP2kYyHOKTxRJTGYusG-8" value="" style="endArrow=none;html=1;rounded=0;" edge="1" parent="1">
          <mxGeometry width="50" height="50" relative="1" as="geometry">
            <mxPoint x="1090" y="3534.1559709821427" as="sourcePoint" />
            <mxPoint x="1090" y="90" as="targetPoint" />
          </mxGeometry>
        </mxCell>
        <mxCell id="6MP2kYyHOKTxRJTGYusG-9" value="" style="endArrow=none;html=1;rounded=0;" edge="1" parent="1">
          <mxGeometry width="50" height="50" relative="1" as="geometry">
            <mxPoint x="1250" y="3544.1559709821427" as="sourcePoint" />
            <mxPoint x="1250" y="100" as="targetPoint" />
          </mxGeometry>
        </mxCell>
        <mxCell id="6MP2kYyHOKTxRJTGYusG-10" value="" style="endArrow=none;html=1;rounded=0;" edge="1" parent="1">
          <mxGeometry width="50" height="50" relative="1" as="geometry">
            <mxPoint x="1450" y="3534.1559709821427" as="sourcePoint" />
            <mxPoint x="1450" y="90" as="targetPoint" />
          </mxGeometry>
        </mxCell>
        <mxCell id="6MP2kYyHOKTxRJTGYusG-16" value="" style="endArrow=none;html=1;rounded=0;" edge="1" parent="1">
          <mxGeometry width="50" height="50" relative="1" as="geometry">
            <mxPoint x="1630" y="3534.1559709821427" as="sourcePoint" />
            <mxPoint x="1630" y="90" as="targetPoint" />
          </mxGeometry>
        </mxCell>
        <mxCell id="6MP2kYyHOKTxRJTGYusG-17" value="" style="endArrow=none;html=1;rounded=0;" edge="1" parent="1">
          <mxGeometry width="50" height="50" relative="1" as="geometry">
            <mxPoint x="1830" y="3524.1559709821427" as="sourcePoint" />
            <mxPoint x="1830" y="80" as="targetPoint" />
          </mxGeometry>
        </mxCell>
        <mxCell id="6MP2kYyHOKTxRJTGYusG-18" value="" style="endArrow=none;html=1;rounded=0;" edge="1" parent="1">
          <mxGeometry width="50" height="50" relative="1" as="geometry">
            <mxPoint x="1990" y="3534.1559709821427" as="sourcePoint" />
            <mxPoint x="1990" y="90" as="targetPoint" />
          </mxGeometry>
        </mxCell>
        <mxCell id="6MP2kYyHOKTxRJTGYusG-19" value="" style="endArrow=none;html=1;rounded=0;" edge="1" parent="1">
          <mxGeometry width="50" height="50" relative="1" as="geometry">
            <mxPoint x="2190" y="3524.1559709821427" as="sourcePoint" />
            <mxPoint x="2190" y="80" as="targetPoint" />
          </mxGeometry>
        </mxCell>
        <mxCell id="6MP2kYyHOKTxRJTGYusG-20" value="" style="endArrow=none;html=1;rounded=0;" edge="1" parent="1">
          <mxGeometry width="50" height="50" relative="1" as="geometry">
            <mxPoint x="2400" y="3534.1559709821427" as="sourcePoint" />
            <mxPoint x="2400" y="90" as="targetPoint" />
          </mxGeometry>
        </mxCell>
        <mxCell id="6MP2kYyHOKTxRJTGYusG-21" value="" style="endArrow=none;html=1;rounded=0;" edge="1" parent="1">
          <mxGeometry width="50" height="50" relative="1" as="geometry">
            <mxPoint x="2600" y="3524.1559709821427" as="sourcePoint" />
            <mxPoint x="2600" y="80" as="targetPoint" />
          </mxGeometry>
        </mxCell>
        <mxCell id="6MP2kYyHOKTxRJTGYusG-22" value="" style="endArrow=none;html=1;rounded=0;" edge="1" parent="1" source="6MP2kYyHOKTxRJTGYusG-90">
          <mxGeometry width="50" height="50" relative="1" as="geometry">
            <mxPoint x="2760" y="3534.1559709821427" as="sourcePoint" />
            <mxPoint x="2760" y="90" as="targetPoint" />
          </mxGeometry>
        </mxCell>
        <mxCell id="6MP2kYyHOKTxRJTGYusG-23" value="" style="endArrow=none;html=1;rounded=0;" edge="1" parent="1">
          <mxGeometry width="50" height="50" relative="1" as="geometry">
            <mxPoint x="2960" y="3524.1559709821427" as="sourcePoint" />
            <mxPoint x="2960" y="80" as="targetPoint" />
          </mxGeometry>
        </mxCell>
        <mxCell id="6MP2kYyHOKTxRJTGYusG-24" value="" style="endArrow=none;html=1;rounded=0;" edge="1" parent="1">
          <mxGeometry width="50" height="50" relative="1" as="geometry">
            <mxPoint x="3230" y="3524.1559709821427" as="sourcePoint" />
            <mxPoint x="3230" y="80" as="targetPoint" />
          </mxGeometry>
        </mxCell>
        <mxCell id="6MP2kYyHOKTxRJTGYusG-25" value="" style="endArrow=none;html=1;rounded=0;" edge="1" parent="1">
          <mxGeometry width="50" height="50" relative="1" as="geometry">
            <mxPoint x="3430" y="3514.1559709821427" as="sourcePoint" />
            <mxPoint x="3430" y="70" as="targetPoint" />
          </mxGeometry>
        </mxCell>
        <mxCell id="6MP2kYyHOKTxRJTGYusG-26" value="" style="endArrow=none;html=1;rounded=0;" edge="1" parent="1" source="6MP2kYyHOKTxRJTGYusG-97">
          <mxGeometry width="50" height="50" relative="1" as="geometry">
            <mxPoint x="3590" y="3524.1559709821427" as="sourcePoint" />
            <mxPoint x="3590" y="80" as="targetPoint" />
          </mxGeometry>
        </mxCell>
        <mxCell id="6MP2kYyHOKTxRJTGYusG-27" value="" style="endArrow=none;html=1;rounded=0;" edge="1" parent="1">
          <mxGeometry width="50" height="50" relative="1" as="geometry">
            <mxPoint x="3790" y="3514.1559709821427" as="sourcePoint" />
            <mxPoint x="3790" y="70" as="targetPoint" />
          </mxGeometry>
        </mxCell>
        <mxCell id="6MP2kYyHOKTxRJTGYusG-28" value="" style="endArrow=none;html=1;rounded=0;" edge="1" parent="1">
          <mxGeometry width="50" height="50" relative="1" as="geometry">
            <mxPoint x="3960" y="3514.1559709821427" as="sourcePoint" />
            <mxPoint x="3960" y="70" as="targetPoint" />
          </mxGeometry>
        </mxCell>
        <mxCell id="6MP2kYyHOKTxRJTGYusG-29" value="" style="endArrow=none;html=1;rounded=0;" edge="1" parent="1">
          <mxGeometry width="50" height="50" relative="1" as="geometry">
            <mxPoint x="4160" y="3504.1559709821427" as="sourcePoint" />
            <mxPoint x="4160" y="60" as="targetPoint" />
          </mxGeometry>
        </mxCell>
        <mxCell id="6MP2kYyHOKTxRJTGYusG-30" value="" style="endArrow=none;html=1;rounded=0;" edge="1" parent="1">
          <mxGeometry width="50" height="50" relative="1" as="geometry">
            <mxPoint x="4320" y="3514.1559709821427" as="sourcePoint" />
            <mxPoint x="4320" y="70" as="targetPoint" />
          </mxGeometry>
        </mxCell>
        <mxCell id="6MP2kYyHOKTxRJTGYusG-31" value="" style="endArrow=none;html=1;rounded=0;" edge="1" parent="1">
          <mxGeometry width="50" height="50" relative="1" as="geometry">
            <mxPoint x="4520" y="3504.1559709821427" as="sourcePoint" />
            <mxPoint x="4520" y="60" as="targetPoint" />
          </mxGeometry>
        </mxCell>
        <mxCell id="6MP2kYyHOKTxRJTGYusG-32" value="" style="endArrow=none;html=1;rounded=0;" edge="1" parent="1">
          <mxGeometry width="50" height="50" relative="1" as="geometry">
            <mxPoint x="4700" y="3504.1559709821427" as="sourcePoint" />
            <mxPoint x="4700" y="60" as="targetPoint" />
          </mxGeometry>
        </mxCell>
        <mxCell id="6MP2kYyHOKTxRJTGYusG-33" value="" style="endArrow=none;html=1;rounded=0;" edge="1" parent="1">
          <mxGeometry width="50" height="50" relative="1" as="geometry">
            <mxPoint x="4900" y="3494.1559709821427" as="sourcePoint" />
            <mxPoint x="4900" y="50" as="targetPoint" />
          </mxGeometry>
        </mxCell>
        <mxCell id="6MP2kYyHOKTxRJTGYusG-34" value="" style="endArrow=none;html=1;rounded=0;" edge="1" parent="1">
          <mxGeometry width="50" height="50" relative="1" as="geometry">
            <mxPoint x="5060" y="3504.1559709821427" as="sourcePoint" />
            <mxPoint x="5060" y="60" as="targetPoint" />
          </mxGeometry>
        </mxCell>
        <mxCell id="6MP2kYyHOKTxRJTGYusG-35" value="" style="endArrow=none;html=1;rounded=0;" edge="1" parent="1">
          <mxGeometry width="50" height="50" relative="1" as="geometry">
            <mxPoint x="5260" y="3494.1559709821427" as="sourcePoint" />
            <mxPoint x="5260" y="50" as="targetPoint" />
          </mxGeometry>
        </mxCell>
        <mxCell id="6MP2kYyHOKTxRJTGYusG-36" value="" style="endArrow=none;html=1;rounded=0;" edge="1" parent="1">
          <mxGeometry width="50" height="50" relative="1" as="geometry">
            <mxPoint x="5470" y="3504.1559709821427" as="sourcePoint" />
            <mxPoint x="5470" y="60" as="targetPoint" />
          </mxGeometry>
        </mxCell>
        <mxCell id="6MP2kYyHOKTxRJTGYusG-37" value="" style="endArrow=none;html=1;rounded=0;" edge="1" parent="1" source="6MP2kYyHOKTxRJTGYusG-104">
          <mxGeometry width="50" height="50" relative="1" as="geometry">
            <mxPoint x="5670" y="3494.1559709821427" as="sourcePoint" />
            <mxPoint x="5670" y="50" as="targetPoint" />
          </mxGeometry>
        </mxCell>
        <mxCell id="6MP2kYyHOKTxRJTGYusG-38" value="" style="endArrow=none;html=1;rounded=0;" edge="1" parent="1">
          <mxGeometry width="50" height="50" relative="1" as="geometry">
            <mxPoint x="5830" y="3504.1559709821427" as="sourcePoint" />
            <mxPoint x="5830" y="60" as="targetPoint" />
          </mxGeometry>
        </mxCell>
        <mxCell id="6MP2kYyHOKTxRJTGYusG-39" value="" style="endArrow=none;html=1;rounded=0;" edge="1" parent="1">
          <mxGeometry width="50" height="50" relative="1" as="geometry">
            <mxPoint x="6030" y="3494.1559709821427" as="sourcePoint" />
            <mxPoint x="6030" y="50" as="targetPoint" />
          </mxGeometry>
        </mxCell>
        <mxCell id="6MP2kYyHOKTxRJTGYusG-40" value="" style="endArrow=none;html=1;rounded=0;" edge="1" parent="1">
          <mxGeometry width="50" height="50" relative="1" as="geometry">
            <mxPoint x="6250" y="3604.1559709821427" as="sourcePoint" />
            <mxPoint x="6250" y="160" as="targetPoint" />
          </mxGeometry>
        </mxCell>
        <mxCell id="6MP2kYyHOKTxRJTGYusG-41" value="" style="endArrow=none;html=1;rounded=0;" edge="1" parent="1">
          <mxGeometry width="50" height="50" relative="1" as="geometry">
            <mxPoint x="6450" y="3594.1559709821427" as="sourcePoint" />
            <mxPoint x="6450" y="150" as="targetPoint" />
          </mxGeometry>
        </mxCell>
        <mxCell id="6MP2kYyHOKTxRJTGYusG-42" value="" style="endArrow=none;html=1;rounded=0;" edge="1" parent="1">
          <mxGeometry width="50" height="50" relative="1" as="geometry">
            <mxPoint x="6610" y="3604.1559709821427" as="sourcePoint" />
            <mxPoint x="6610" y="160" as="targetPoint" />
          </mxGeometry>
        </mxCell>
        <mxCell id="6MP2kYyHOKTxRJTGYusG-43" value="" style="endArrow=none;html=1;rounded=0;" edge="1" parent="1">
          <mxGeometry width="50" height="50" relative="1" as="geometry">
            <mxPoint x="6810" y="3594.1559709821427" as="sourcePoint" />
            <mxPoint x="6810" y="150" as="targetPoint" />
          </mxGeometry>
        </mxCell>
        <mxCell id="6MP2kYyHOKTxRJTGYusG-44" value="" style="endArrow=none;html=1;rounded=0;" edge="1" parent="1">
          <mxGeometry width="50" height="50" relative="1" as="geometry">
            <mxPoint x="6980" y="3594.1559709821427" as="sourcePoint" />
            <mxPoint x="6980" y="150" as="targetPoint" />
          </mxGeometry>
        </mxCell>
        <mxCell id="6MP2kYyHOKTxRJTGYusG-45" value="" style="endArrow=none;html=1;rounded=0;" edge="1" parent="1">
          <mxGeometry width="50" height="50" relative="1" as="geometry">
            <mxPoint x="7180" y="3584.1559709821427" as="sourcePoint" />
            <mxPoint x="7180" y="140" as="targetPoint" />
          </mxGeometry>
        </mxCell>
        <mxCell id="6MP2kYyHOKTxRJTGYusG-46" value="" style="endArrow=none;html=1;rounded=0;" edge="1" parent="1">
          <mxGeometry width="50" height="50" relative="1" as="geometry">
            <mxPoint x="7340" y="3594.1559709821427" as="sourcePoint" />
            <mxPoint x="7340" y="150" as="targetPoint" />
          </mxGeometry>
        </mxCell>
        <mxCell id="6MP2kYyHOKTxRJTGYusG-47" value="" style="endArrow=none;html=1;rounded=0;" edge="1" parent="1">
          <mxGeometry width="50" height="50" relative="1" as="geometry">
            <mxPoint x="7540" y="3584.1559709821427" as="sourcePoint" />
            <mxPoint x="7540" y="140" as="targetPoint" />
          </mxGeometry>
        </mxCell>
        <mxCell id="6MP2kYyHOKTxRJTGYusG-48" value="" style="endArrow=none;html=1;rounded=0;" edge="1" parent="1" source="6MP2kYyHOKTxRJTGYusG-121">
          <mxGeometry width="50" height="50" relative="1" as="geometry">
            <mxPoint x="7720" y="3584.1559709821427" as="sourcePoint" />
            <mxPoint x="7720" y="140" as="targetPoint" />
          </mxGeometry>
        </mxCell>
        <mxCell id="6MP2kYyHOKTxRJTGYusG-49" value="" style="endArrow=none;html=1;rounded=0;" edge="1" parent="1">
          <mxGeometry width="50" height="50" relative="1" as="geometry">
            <mxPoint x="7920" y="3574.1559709821427" as="sourcePoint" />
            <mxPoint x="7920" y="130" as="targetPoint" />
          </mxGeometry>
        </mxCell>
        <mxCell id="6MP2kYyHOKTxRJTGYusG-50" value="" style="endArrow=none;html=1;rounded=0;" edge="1" parent="1">
          <mxGeometry width="50" height="50" relative="1" as="geometry">
            <mxPoint x="8080" y="3584.1559709821427" as="sourcePoint" />
            <mxPoint x="8080" y="140" as="targetPoint" />
          </mxGeometry>
        </mxCell>
        <mxCell id="6MP2kYyHOKTxRJTGYusG-56" value="0" style="text;html=1;align=center;verticalAlign=middle;resizable=0;points=[];autosize=1;strokeColor=none;fillColor=none;" vertex="1" parent="1">
          <mxGeometry x="145" y="68" width="30" height="30" as="geometry" />
        </mxCell>
        <mxCell id="6MP2kYyHOKTxRJTGYusG-57" value="" style="rhombus;whiteSpace=wrap;html=1;" vertex="1" parent="1">
          <mxGeometry x="120" y="120" width="80" height="80" as="geometry" />
        </mxCell>
        <mxCell id="6MP2kYyHOKTxRJTGYusG-58" value="Inicio" style="text;html=1;align=center;verticalAlign=middle;resizable=0;points=[];autosize=1;strokeColor=none;fillColor=none;" vertex="1" parent="1">
          <mxGeometry x="200" y="145" width="50" height="30" as="geometry" />
        </mxCell>
        <mxCell id="6MP2kYyHOKTxRJTGYusG-59" value="T1" style="text;html=1;align=center;verticalAlign=middle;resizable=0;points=[];autosize=1;strokeColor=none;fillColor=none;" vertex="1" parent="1">
          <mxGeometry x="105" y="240" width="40" height="30" as="geometry" />
        </mxCell>
        <mxCell id="6MP2kYyHOKTxRJTGYusG-60" value="" style="rounded=0;whiteSpace=wrap;html=1;" vertex="1" parent="1">
          <mxGeometry x="159" y="225" width="361" height="60" as="geometry" />
        </mxCell>
        <mxCell id="6MP2kYyHOKTxRJTGYusG-61" value="T2" style="text;html=1;align=center;verticalAlign=middle;resizable=0;points=[];autosize=1;strokeColor=none;fillColor=none;" vertex="1" parent="1">
          <mxGeometry x="470" y="368" width="40" height="30" as="geometry" />
        </mxCell>
        <mxCell id="6MP2kYyHOKTxRJTGYusG-62" value="" style="rounded=0;whiteSpace=wrap;html=1;" vertex="1" parent="1">
          <mxGeometry x="520" y="353" width="370" height="60" as="geometry" />
        </mxCell>
        <mxCell id="6MP2kYyHOKTxRJTGYusG-65" value="" style="rounded=0;whiteSpace=wrap;html=1;" vertex="1" parent="1">
          <mxGeometry x="890" y="503" width="200" height="60" as="geometry" />
        </mxCell>
        <mxCell id="6MP2kYyHOKTxRJTGYusG-68" value="" style="endArrow=none;html=1;rounded=0;" edge="1" parent="1" target="6MP2kYyHOKTxRJTGYusG-66">
          <mxGeometry width="50" height="50" relative="1" as="geometry">
            <mxPoint x="520" y="3554.1559709821427" as="sourcePoint" />
            <mxPoint x="520" y="110" as="targetPoint" />
          </mxGeometry>
        </mxCell>
        <mxCell id="6MP2kYyHOKTxRJTGYusG-66" value="" style="rhombus;whiteSpace=wrap;html=1;" vertex="1" parent="1">
          <mxGeometry x="500" y="300" width="40" height="40" as="geometry" />
        </mxCell>
        <mxCell id="6MP2kYyHOKTxRJTGYusG-69" value="T1" style="text;html=1;align=center;verticalAlign=middle;resizable=0;points=[];autosize=1;strokeColor=none;fillColor=none;" vertex="1" parent="1">
          <mxGeometry x="530" y="308" width="40" height="30" as="geometry" />
        </mxCell>
        <mxCell id="6MP2kYyHOKTxRJTGYusG-71" value="" style="endArrow=none;html=1;rounded=0;" edge="1" parent="1">
          <mxGeometry width="50" height="50" relative="1" as="geometry">
            <mxPoint x="720" y="3544.1559709821427" as="sourcePoint" />
            <mxPoint x="720" y="430" as="targetPoint" />
          </mxGeometry>
        </mxCell>
        <mxCell id="6MP2kYyHOKTxRJTGYusG-72" value="T2" style="text;html=1;align=center;verticalAlign=middle;resizable=0;points=[];autosize=1;strokeColor=none;fillColor=none;" vertex="1" parent="1">
          <mxGeometry x="910" y="435" width="40" height="30" as="geometry" />
        </mxCell>
        <mxCell id="6MP2kYyHOKTxRJTGYusG-73" value="T3" style="text;html=1;align=center;verticalAlign=middle;resizable=0;points=[];autosize=1;strokeColor=none;fillColor=none;" vertex="1" parent="1">
          <mxGeometry x="840" y="518" width="40" height="30" as="geometry" />
        </mxCell>
        <mxCell id="6MP2kYyHOKTxRJTGYusG-74" value="" style="rhombus;whiteSpace=wrap;html=1;" vertex="1" parent="1">
          <mxGeometry x="870" y="430" width="40" height="40" as="geometry" />
        </mxCell>
        <mxCell id="6MP2kYyHOKTxRJTGYusG-75" value="T4" style="text;html=1;align=center;verticalAlign=middle;resizable=0;points=[];autosize=1;strokeColor=none;fillColor=none;" vertex="1" parent="1">
          <mxGeometry x="1040" y="578" width="40" height="30" as="geometry" />
        </mxCell>
        <mxCell id="6MP2kYyHOKTxRJTGYusG-76" value="" style="rounded=0;whiteSpace=wrap;html=1;" vertex="1" parent="1">
          <mxGeometry x="1090" y="563" width="160" height="60" as="geometry" />
        </mxCell>
        <mxCell id="6MP2kYyHOKTxRJTGYusG-77" value="" style="rhombus;whiteSpace=wrap;html=1;" vertex="1" parent="1">
          <mxGeometry x="1230" y="650" width="40" height="40" as="geometry" />
        </mxCell>
        <mxCell id="6MP2kYyHOKTxRJTGYusG-78" value="T1" style="text;html=1;align=center;verticalAlign=middle;resizable=0;points=[];autosize=1;strokeColor=none;fillColor=none;" vertex="1" parent="1">
          <mxGeometry x="1270" y="658" width="40" height="30" as="geometry" />
        </mxCell>
        <mxCell id="6MP2kYyHOKTxRJTGYusG-79" value="T5" style="text;html=1;align=center;verticalAlign=middle;resizable=0;points=[];autosize=1;strokeColor=none;fillColor=none;" vertex="1" parent="1">
          <mxGeometry x="1180" y="725" width="40" height="30" as="geometry" />
        </mxCell>
        <mxCell id="6MP2kYyHOKTxRJTGYusG-80" value="" style="rounded=0;whiteSpace=wrap;html=1;" vertex="1" parent="1">
          <mxGeometry x="1250" y="710" width="740" height="60" as="geometry" />
        </mxCell>
        <mxCell id="6MP2kYyHOKTxRJTGYusG-81" value="" style="rhombus;whiteSpace=wrap;html=1;" vertex="1" parent="1">
          <mxGeometry x="1970" y="790" width="40" height="40" as="geometry" />
        </mxCell>
        <mxCell id="6MP2kYyHOKTxRJTGYusG-82" value="T5" style="text;html=1;align=center;verticalAlign=middle;resizable=0;points=[];autosize=1;strokeColor=none;fillColor=none;" vertex="1" parent="1">
          <mxGeometry x="2020" y="795" width="40" height="30" as="geometry" />
        </mxCell>
        <mxCell id="6MP2kYyHOKTxRJTGYusG-83" value="" style="rounded=0;whiteSpace=wrap;html=1;" vertex="1" parent="1">
          <mxGeometry x="1990" y="850" width="410" height="60" as="geometry" />
        </mxCell>
        <mxCell id="6MP2kYyHOKTxRJTGYusG-84" value="" style="rounded=0;whiteSpace=wrap;html=1;" vertex="1" parent="1">
          <mxGeometry x="2410" y="980" width="360" height="60" as="geometry" />
        </mxCell>
        <mxCell id="6MP2kYyHOKTxRJTGYusG-85" value="T6" style="text;html=1;align=center;verticalAlign=middle;resizable=0;points=[];autosize=1;strokeColor=none;fillColor=none;" vertex="1" parent="1">
          <mxGeometry x="1940" y="878" width="40" height="30" as="geometry" />
        </mxCell>
        <mxCell id="6MP2kYyHOKTxRJTGYusG-87" value="" style="rhombus;whiteSpace=wrap;html=1;" vertex="1" parent="1">
          <mxGeometry x="2380" y="920" width="40" height="40" as="geometry" />
        </mxCell>
        <mxCell id="6MP2kYyHOKTxRJTGYusG-88" value="T5" style="text;html=1;align=center;verticalAlign=middle;resizable=0;points=[];autosize=1;strokeColor=none;fillColor=none;" vertex="1" parent="1">
          <mxGeometry x="2410" y="925" width="40" height="30" as="geometry" />
        </mxCell>
        <mxCell id="6MP2kYyHOKTxRJTGYusG-89" value="T7" style="text;html=1;align=center;verticalAlign=middle;resizable=0;points=[];autosize=1;strokeColor=none;fillColor=none;" vertex="1" parent="1">
          <mxGeometry x="2360" y="995" width="40" height="30" as="geometry" />
        </mxCell>
        <mxCell id="6MP2kYyHOKTxRJTGYusG-91" value="" style="endArrow=none;html=1;rounded=0;" edge="1" parent="1" target="6MP2kYyHOKTxRJTGYusG-90">
          <mxGeometry width="50" height="50" relative="1" as="geometry">
            <mxPoint x="2760" y="3534.1559709821427" as="sourcePoint" />
            <mxPoint x="2760" y="90" as="targetPoint" />
          </mxGeometry>
        </mxCell>
        <mxCell id="6MP2kYyHOKTxRJTGYusG-90" value="" style="rhombus;whiteSpace=wrap;html=1;" vertex="1" parent="1">
          <mxGeometry x="2740" y="1060" width="40" height="40" as="geometry" />
        </mxCell>
        <mxCell id="6MP2kYyHOKTxRJTGYusG-92" value="T5" style="text;html=1;align=center;verticalAlign=middle;resizable=0;points=[];autosize=1;strokeColor=none;fillColor=none;" vertex="1" parent="1">
          <mxGeometry x="2780" y="1070" width="40" height="30" as="geometry" />
        </mxCell>
        <mxCell id="6MP2kYyHOKTxRJTGYusG-93" value="" style="rounded=0;whiteSpace=wrap;html=1;" vertex="1" parent="1">
          <mxGeometry x="2760" y="1109" width="830" height="60" as="geometry" />
        </mxCell>
        <mxCell id="6MP2kYyHOKTxRJTGYusG-94" value="T8" style="text;html=1;align=center;verticalAlign=middle;resizable=0;points=[];autosize=1;strokeColor=none;fillColor=none;" vertex="1" parent="1">
          <mxGeometry x="2710" y="1118" width="40" height="30" as="geometry" />
        </mxCell>
        <mxCell id="6MP2kYyHOKTxRJTGYusG-98" value="" style="endArrow=none;html=1;rounded=0;" edge="1" parent="1" target="6MP2kYyHOKTxRJTGYusG-97">
          <mxGeometry width="50" height="50" relative="1" as="geometry">
            <mxPoint x="3590" y="3524.1559709821427" as="sourcePoint" />
            <mxPoint x="3590" y="80" as="targetPoint" />
          </mxGeometry>
        </mxCell>
        <mxCell id="6MP2kYyHOKTxRJTGYusG-97" value="" style="rhombus;whiteSpace=wrap;html=1;" vertex="1" parent="1">
          <mxGeometry x="3570" y="1200" width="40" height="40" as="geometry" />
        </mxCell>
        <mxCell id="6MP2kYyHOKTxRJTGYusG-99" value="T8" style="text;html=1;align=center;verticalAlign=middle;resizable=0;points=[];autosize=1;strokeColor=none;fillColor=none;" vertex="1" parent="1">
          <mxGeometry x="3610" y="1208" width="40" height="30" as="geometry" />
        </mxCell>
        <mxCell id="6MP2kYyHOKTxRJTGYusG-100" value="T9" style="text;html=1;align=center;verticalAlign=middle;resizable=0;points=[];autosize=1;strokeColor=none;fillColor=none;" vertex="1" parent="1">
          <mxGeometry x="3530" y="1268" width="40" height="30" as="geometry" />
        </mxCell>
        <mxCell id="6MP2kYyHOKTxRJTGYusG-101" value="" style="rounded=0;whiteSpace=wrap;html=1;" vertex="1" parent="1">
          <mxGeometry x="3590" y="1268" width="1310" height="60" as="geometry" />
        </mxCell>
        <mxCell id="6MP2kYyHOKTxRJTGYusG-102" value="" style="rounded=0;whiteSpace=wrap;html=1;" vertex="1" parent="1">
          <mxGeometry x="4902" y="1369" width="768" height="60" as="geometry" />
        </mxCell>
        <mxCell id="6MP2kYyHOKTxRJTGYusG-103" value="T10" style="text;html=1;align=center;verticalAlign=middle;resizable=0;points=[];autosize=1;strokeColor=none;fillColor=none;" vertex="1" parent="1">
          <mxGeometry x="4850" y="1388" width="40" height="30" as="geometry" />
        </mxCell>
        <mxCell id="6MP2kYyHOKTxRJTGYusG-109" value="" style="endArrow=none;html=1;rounded=0;" edge="1" parent="1" target="6MP2kYyHOKTxRJTGYusG-104">
          <mxGeometry width="50" height="50" relative="1" as="geometry">
            <mxPoint x="5670" y="3494.1559709821427" as="sourcePoint" />
            <mxPoint x="5670" y="50" as="targetPoint" />
          </mxGeometry>
        </mxCell>
        <mxCell id="6MP2kYyHOKTxRJTGYusG-104" value="" style="rhombus;whiteSpace=wrap;html=1;" vertex="1" parent="1">
          <mxGeometry x="5650" y="1440" width="40" height="40" as="geometry" />
        </mxCell>
        <mxCell id="6MP2kYyHOKTxRJTGYusG-110" value="T10&amp;amp;T1" style="text;html=1;align=center;verticalAlign=middle;resizable=0;points=[];autosize=1;strokeColor=none;fillColor=none;" vertex="1" parent="1">
          <mxGeometry x="5690" y="1450" width="70" height="30" as="geometry" />
        </mxCell>
        <mxCell id="6MP2kYyHOKTxRJTGYusG-111" value="T11" style="text;html=1;align=center;verticalAlign=middle;resizable=0;points=[];autosize=1;strokeColor=none;fillColor=none;" vertex="1" parent="1">
          <mxGeometry x="5620" y="1510" width="40" height="30" as="geometry" />
        </mxCell>
        <mxCell id="6MP2kYyHOKTxRJTGYusG-112" value="" style="rounded=0;whiteSpace=wrap;html=1;" vertex="1" parent="1">
          <mxGeometry x="5670" y="1510" width="360" height="60" as="geometry" />
        </mxCell>
        <mxCell id="6MP2kYyHOKTxRJTGYusG-113" value="T12" style="text;html=1;align=center;verticalAlign=middle;resizable=0;points=[];autosize=1;strokeColor=none;fillColor=none;" vertex="1" parent="1">
          <mxGeometry x="5980" y="1598" width="40" height="30" as="geometry" />
        </mxCell>
        <mxCell id="6MP2kYyHOKTxRJTGYusG-114" value="" style="rounded=0;whiteSpace=wrap;html=1;" vertex="1" parent="1">
          <mxGeometry x="6030" y="1583" width="1310" height="60" as="geometry" />
        </mxCell>
        <mxCell id="6MP2kYyHOKTxRJTGYusG-115" value="" style="rhombus;whiteSpace=wrap;html=1;" vertex="1" parent="1">
          <mxGeometry x="7320" y="1660" width="40" height="40" as="geometry" />
        </mxCell>
        <mxCell id="6MP2kYyHOKTxRJTGYusG-118" value="T5" style="text;html=1;align=center;verticalAlign=middle;resizable=0;points=[];autosize=1;strokeColor=none;fillColor=none;" vertex="1" parent="1">
          <mxGeometry x="7360" y="1665" width="40" height="30" as="geometry" />
        </mxCell>
        <mxCell id="6MP2kYyHOKTxRJTGYusG-119" value="T13" style="text;html=1;align=center;verticalAlign=middle;resizable=0;points=[];autosize=1;strokeColor=none;fillColor=none;" vertex="1" parent="1">
          <mxGeometry x="7280" y="1718" width="40" height="30" as="geometry" />
        </mxCell>
        <mxCell id="6MP2kYyHOKTxRJTGYusG-120" value="" style="rounded=0;whiteSpace=wrap;html=1;" vertex="1" parent="1">
          <mxGeometry x="7340" y="1710" width="380" height="60" as="geometry" />
        </mxCell>
        <mxCell id="6MP2kYyHOKTxRJTGYusG-122" value="" style="endArrow=none;html=1;rounded=0;" edge="1" parent="1" target="6MP2kYyHOKTxRJTGYusG-121">
          <mxGeometry width="50" height="50" relative="1" as="geometry">
            <mxPoint x="7720" y="3584.1559709821427" as="sourcePoint" />
            <mxPoint x="7720" y="140" as="targetPoint" />
          </mxGeometry>
        </mxCell>
        <mxCell id="6MP2kYyHOKTxRJTGYusG-121" value="" style="rhombus;whiteSpace=wrap;html=1;" vertex="1" parent="1">
          <mxGeometry x="7700" y="1780" width="40" height="40" as="geometry" />
        </mxCell>
        <mxCell id="6MP2kYyHOKTxRJTGYusG-123" value="T12&amp;amp;T9" style="text;html=1;align=center;verticalAlign=middle;resizable=0;points=[];autosize=1;strokeColor=none;fillColor=none;" vertex="1" parent="1">
          <mxGeometry x="7735" y="1788" width="70" height="30" as="geometry" />
        </mxCell>
        <mxCell id="6MP2kYyHOKTxRJTGYusG-124" value="" style="rounded=0;whiteSpace=wrap;html=1;" vertex="1" parent="1">
          <mxGeometry x="7720" y="1840" width="360" height="60" as="geometry" />
        </mxCell>
        <mxCell id="6MP2kYyHOKTxRJTGYusG-126" value="T14" style="text;html=1;align=center;verticalAlign=middle;resizable=0;points=[];autosize=1;strokeColor=none;fillColor=none;" vertex="1" parent="1">
          <mxGeometry x="7680" y="1858" width="40" height="30" as="geometry" />
        </mxCell>
        <mxCell id="6MP2kYyHOKTxRJTGYusG-127" value="" style="rhombus;whiteSpace=wrap;html=1;" vertex="1" parent="1">
          <mxGeometry x="8040" y="1920" width="80" height="80" as="geometry" />
        </mxCell>
        <mxCell id="6MP2kYyHOKTxRJTGYusG-128" value="Fin" style="text;html=1;align=center;verticalAlign=middle;resizable=0;points=[];autosize=1;strokeColor=none;fillColor=none;" vertex="1" parent="1">
          <mxGeometry x="8130" y="1938" width="40" height="30" as="geometry" />
        </mxCell>
        <mxCell id="6MP2kYyHOKTxRJTGYusG-129" value="1" style="text;html=1;align=center;verticalAlign=middle;resizable=0;points=[];autosize=1;strokeColor=none;fillColor=none;" vertex="1" parent="1">
          <mxGeometry x="335" y="68" width="30" height="30" as="geometry" />
        </mxCell>
        <mxCell id="6MP2kYyHOKTxRJTGYusG-130" value="2" style="text;html=1;align=center;verticalAlign=middle;resizable=0;points=[];autosize=1;strokeColor=none;fillColor=none;" vertex="1" parent="1">
          <mxGeometry x="505" y="78" width="30" height="30" as="geometry" />
        </mxCell>
        <mxCell id="6MP2kYyHOKTxRJTGYusG-131" value="3" style="text;html=1;align=center;verticalAlign=middle;resizable=0;points=[];autosize=1;strokeColor=none;fillColor=none;" vertex="1" parent="1">
          <mxGeometry x="695" y="68" width="30" height="30" as="geometry" />
        </mxCell>
        <mxCell id="6MP2kYyHOKTxRJTGYusG-132" value="4" style="text;html=1;align=center;verticalAlign=middle;resizable=0;points=[];autosize=1;strokeColor=none;fillColor=none;" vertex="1" parent="1">
          <mxGeometry x="875" y="48" width="30" height="30" as="geometry" />
        </mxCell>
        <mxCell id="6MP2kYyHOKTxRJTGYusG-133" value="5" style="text;html=1;align=center;verticalAlign=middle;resizable=0;points=[];autosize=1;strokeColor=none;fillColor=none;" vertex="1" parent="1">
          <mxGeometry x="1065" y="38" width="30" height="30" as="geometry" />
        </mxCell>
        <mxCell id="6MP2kYyHOKTxRJTGYusG-134" value="6" style="text;html=1;align=center;verticalAlign=middle;resizable=0;points=[];autosize=1;strokeColor=none;fillColor=none;" vertex="1" parent="1">
          <mxGeometry x="1245" y="48" width="30" height="30" as="geometry" />
        </mxCell>
        <mxCell id="6MP2kYyHOKTxRJTGYusG-135" value="7" style="text;html=1;align=center;verticalAlign=middle;resizable=0;points=[];autosize=1;strokeColor=none;fillColor=none;" vertex="1" parent="1">
          <mxGeometry x="1435" y="48" width="30" height="30" as="geometry" />
        </mxCell>
        <mxCell id="6MP2kYyHOKTxRJTGYusG-136" value="8" style="text;html=1;align=center;verticalAlign=middle;resizable=0;points=[];autosize=1;strokeColor=none;fillColor=none;" vertex="1" parent="1">
          <mxGeometry x="1605" y="38" width="30" height="30" as="geometry" />
        </mxCell>
        <mxCell id="6MP2kYyHOKTxRJTGYusG-137" value="9" style="text;html=1;align=center;verticalAlign=middle;resizable=0;points=[];autosize=1;strokeColor=none;fillColor=none;" vertex="1" parent="1">
          <mxGeometry x="1825" y="48" width="30" height="30" as="geometry" />
        </mxCell>
        <mxCell id="6MP2kYyHOKTxRJTGYusG-138" value="10" style="text;html=1;align=center;verticalAlign=middle;resizable=0;points=[];autosize=1;strokeColor=none;fillColor=none;" vertex="1" parent="1">
          <mxGeometry x="1950" y="38" width="40" height="30" as="geometry" />
        </mxCell>
        <mxCell id="6MP2kYyHOKTxRJTGYusG-139" value="11" style="text;html=1;align=center;verticalAlign=middle;resizable=0;points=[];autosize=1;strokeColor=none;fillColor=none;" vertex="1" parent="1">
          <mxGeometry x="2170" y="28" width="40" height="30" as="geometry" />
        </mxCell>
        <mxCell id="6MP2kYyHOKTxRJTGYusG-140" value="12" style="text;html=1;align=center;verticalAlign=middle;resizable=0;points=[];autosize=1;strokeColor=none;fillColor=none;" vertex="1" parent="1">
          <mxGeometry x="2380" y="58" width="40" height="30" as="geometry" />
        </mxCell>
        <mxCell id="6MP2kYyHOKTxRJTGYusG-141" value="13" style="text;html=1;align=center;verticalAlign=middle;resizable=0;points=[];autosize=1;strokeColor=none;fillColor=none;" vertex="1" parent="1">
          <mxGeometry x="2580" y="48" width="40" height="30" as="geometry" />
        </mxCell>
        <mxCell id="6MP2kYyHOKTxRJTGYusG-142" value="14" style="text;html=1;align=center;verticalAlign=middle;resizable=0;points=[];autosize=1;strokeColor=none;fillColor=none;" vertex="1" parent="1">
          <mxGeometry x="2740" y="48" width="40" height="30" as="geometry" />
        </mxCell>
        <mxCell id="6MP2kYyHOKTxRJTGYusG-143" value="15" style="text;html=1;align=center;verticalAlign=middle;resizable=0;points=[];autosize=1;strokeColor=none;fillColor=none;" vertex="1" parent="1">
          <mxGeometry x="2950" y="48" width="40" height="30" as="geometry" />
        </mxCell>
        <mxCell id="6MP2kYyHOKTxRJTGYusG-144" value="16" style="text;html=1;align=center;verticalAlign=middle;resizable=0;points=[];autosize=1;strokeColor=none;fillColor=none;" vertex="1" parent="1">
          <mxGeometry x="3210" y="38" width="40" height="30" as="geometry" />
        </mxCell>
        <mxCell id="6MP2kYyHOKTxRJTGYusG-145" value="17" style="text;html=1;align=center;verticalAlign=middle;resizable=0;points=[];autosize=1;strokeColor=none;fillColor=none;" vertex="1" parent="1">
          <mxGeometry x="3410" y="28" width="40" height="30" as="geometry" />
        </mxCell>
        <mxCell id="6MP2kYyHOKTxRJTGYusG-146" value="18" style="text;html=1;align=center;verticalAlign=middle;resizable=0;points=[];autosize=1;strokeColor=none;fillColor=none;" vertex="1" parent="1">
          <mxGeometry x="3570" y="58" width="40" height="30" as="geometry" />
        </mxCell>
        <mxCell id="6MP2kYyHOKTxRJTGYusG-147" value="19" style="text;html=1;align=center;verticalAlign=middle;resizable=0;points=[];autosize=1;strokeColor=none;fillColor=none;" vertex="1" parent="1">
          <mxGeometry x="3770" y="28" width="40" height="30" as="geometry" />
        </mxCell>
        <mxCell id="6MP2kYyHOKTxRJTGYusG-148" value="20" style="text;html=1;align=center;verticalAlign=middle;resizable=0;points=[];autosize=1;strokeColor=none;fillColor=none;" vertex="1" parent="1">
          <mxGeometry x="3940" y="38" width="40" height="30" as="geometry" />
        </mxCell>
        <mxCell id="6MP2kYyHOKTxRJTGYusG-149" value="21" style="text;html=1;align=center;verticalAlign=middle;resizable=0;points=[];autosize=1;strokeColor=none;fillColor=none;" vertex="1" parent="1">
          <mxGeometry x="4140" y="18" width="40" height="30" as="geometry" />
        </mxCell>
        <mxCell id="6MP2kYyHOKTxRJTGYusG-150" value="22" style="text;html=1;align=center;verticalAlign=middle;resizable=0;points=[];autosize=1;strokeColor=none;fillColor=none;" vertex="1" parent="1">
          <mxGeometry x="4300" y="28" width="40" height="30" as="geometry" />
        </mxCell>
        <mxCell id="6MP2kYyHOKTxRJTGYusG-151" value="23" style="text;html=1;align=center;verticalAlign=middle;resizable=0;points=[];autosize=1;strokeColor=none;fillColor=none;" vertex="1" parent="1">
          <mxGeometry x="4490" y="8" width="40" height="30" as="geometry" />
        </mxCell>
        <mxCell id="6MP2kYyHOKTxRJTGYusG-152" value="24" style="text;html=1;align=center;verticalAlign=middle;resizable=0;points=[];autosize=1;strokeColor=none;fillColor=none;" vertex="1" parent="1">
          <mxGeometry x="4670" y="18" width="40" height="30" as="geometry" />
        </mxCell>
        <mxCell id="6MP2kYyHOKTxRJTGYusG-153" value="25" style="text;html=1;align=center;verticalAlign=middle;resizable=0;points=[];autosize=1;strokeColor=none;fillColor=none;" vertex="1" parent="1">
          <mxGeometry x="4880" y="18" width="40" height="30" as="geometry" />
        </mxCell>
        <mxCell id="6MP2kYyHOKTxRJTGYusG-154" value="26" style="text;html=1;align=center;verticalAlign=middle;resizable=0;points=[];autosize=1;strokeColor=none;fillColor=none;" vertex="1" parent="1">
          <mxGeometry x="5040" y="18" width="40" height="30" as="geometry" />
        </mxCell>
        <mxCell id="6MP2kYyHOKTxRJTGYusG-155" value="27" style="text;html=1;align=center;verticalAlign=middle;resizable=0;points=[];autosize=1;strokeColor=none;fillColor=none;" vertex="1" parent="1">
          <mxGeometry x="5230" y="18" width="40" height="30" as="geometry" />
        </mxCell>
        <mxCell id="6MP2kYyHOKTxRJTGYusG-156" value="28" style="text;html=1;align=center;verticalAlign=middle;resizable=0;points=[];autosize=1;strokeColor=none;fillColor=none;" vertex="1" parent="1">
          <mxGeometry x="5450" y="28" width="40" height="30" as="geometry" />
        </mxCell>
        <mxCell id="6MP2kYyHOKTxRJTGYusG-157" value="29" style="text;html=1;align=center;verticalAlign=middle;resizable=0;points=[];autosize=1;strokeColor=none;fillColor=none;" vertex="1" parent="1">
          <mxGeometry x="5650" y="18" width="40" height="30" as="geometry" />
        </mxCell>
        <mxCell id="6MP2kYyHOKTxRJTGYusG-158" value="30" style="text;html=1;align=center;verticalAlign=middle;resizable=0;points=[];autosize=1;strokeColor=none;fillColor=none;" vertex="1" parent="1">
          <mxGeometry x="5820" y="8" width="40" height="30" as="geometry" />
        </mxCell>
        <mxCell id="6MP2kYyHOKTxRJTGYusG-159" value="31" style="text;html=1;align=center;verticalAlign=middle;resizable=0;points=[];autosize=1;strokeColor=none;fillColor=none;" vertex="1" parent="1">
          <mxGeometry x="6000" y="18" width="40" height="30" as="geometry" />
        </mxCell>
        <mxCell id="6MP2kYyHOKTxRJTGYusG-160" value="32" style="text;html=1;align=center;verticalAlign=middle;resizable=0;points=[];autosize=1;strokeColor=none;fillColor=none;" vertex="1" parent="1">
          <mxGeometry x="6220" y="108" width="40" height="30" as="geometry" />
        </mxCell>
        <mxCell id="6MP2kYyHOKTxRJTGYusG-161" value="33" style="text;html=1;align=center;verticalAlign=middle;resizable=0;points=[];autosize=1;strokeColor=none;fillColor=none;" vertex="1" parent="1">
          <mxGeometry x="6410" y="98" width="40" height="30" as="geometry" />
        </mxCell>
        <mxCell id="6MP2kYyHOKTxRJTGYusG-162" value="34" style="text;html=1;align=center;verticalAlign=middle;resizable=0;points=[];autosize=1;strokeColor=none;fillColor=none;" vertex="1" parent="1">
          <mxGeometry x="6590" y="118" width="40" height="30" as="geometry" />
        </mxCell>
        <mxCell id="6MP2kYyHOKTxRJTGYusG-163" value="35" style="text;html=1;align=center;verticalAlign=middle;resizable=0;points=[];autosize=1;strokeColor=none;fillColor=none;" vertex="1" parent="1">
          <mxGeometry x="6780" y="118" width="40" height="30" as="geometry" />
        </mxCell>
        <mxCell id="6MP2kYyHOKTxRJTGYusG-164" value="36" style="text;html=1;align=center;verticalAlign=middle;resizable=0;points=[];autosize=1;strokeColor=none;fillColor=none;" vertex="1" parent="1">
          <mxGeometry x="6950" y="108" width="40" height="30" as="geometry" />
        </mxCell>
        <mxCell id="6MP2kYyHOKTxRJTGYusG-165" value="37" style="text;html=1;align=center;verticalAlign=middle;resizable=0;points=[];autosize=1;strokeColor=none;fillColor=none;" vertex="1" parent="1">
          <mxGeometry x="7160" y="88" width="40" height="30" as="geometry" />
        </mxCell>
        <mxCell id="6MP2kYyHOKTxRJTGYusG-166" value="38" style="text;html=1;align=center;verticalAlign=middle;resizable=0;points=[];autosize=1;strokeColor=none;fillColor=none;" vertex="1" parent="1">
          <mxGeometry x="7330" y="108" width="40" height="30" as="geometry" />
        </mxCell>
        <mxCell id="6MP2kYyHOKTxRJTGYusG-167" value="39" style="text;html=1;align=center;verticalAlign=middle;resizable=0;points=[];autosize=1;strokeColor=none;fillColor=none;" vertex="1" parent="1">
          <mxGeometry x="7530" y="88" width="40" height="30" as="geometry" />
        </mxCell>
        <mxCell id="6MP2kYyHOKTxRJTGYusG-168" value="40" style="text;html=1;align=center;verticalAlign=middle;resizable=0;points=[];autosize=1;strokeColor=none;fillColor=none;" vertex="1" parent="1">
          <mxGeometry x="7690" y="88" width="40" height="30" as="geometry" />
        </mxCell>
        <mxCell id="6MP2kYyHOKTxRJTGYusG-169" value="41" style="text;html=1;align=center;verticalAlign=middle;resizable=0;points=[];autosize=1;strokeColor=none;fillColor=none;" vertex="1" parent="1">
          <mxGeometry x="7880" y="78" width="40" height="30" as="geometry" />
        </mxCell>
        <mxCell id="6MP2kYyHOKTxRJTGYusG-170" value="42" style="text;html=1;align=center;verticalAlign=middle;resizable=0;points=[];autosize=1;strokeColor=none;fillColor=none;" vertex="1" parent="1">
          <mxGeometry x="8050" y="88" width="40" height="30" as="geometry" />
        </mxCell>
      </root>
    </mxGraphModel>
  </diagram>
</mxfile>
